<?xml version="1.0" encoding="UTF-8"?>
<svg xmlns="http://www.w3.org/2000/svg" xmlns:xlink="http://www.w3.org/1999/xlink" width="157px" height="157px" viewBox="0 0 118 118" version="1.1">
<g id="surface1">
<path style=" stroke:none;fill-rule:nonzero;fill:rgb(0%,0%,0%);fill-opacity:1;" d="M 98.886719 110.882812 L 18.980469 110.882812 C 16.832031 110.882812 15.09375 109.144531 15.09375 106.996094 L 15.09375 53.988281 C 15.09375 51.84375 16.832031 50.105469 18.980469 50.105469 C 21.125 50.105469 22.863281 51.84375 22.863281 53.988281 L 22.863281 103.109375 L 95 103.109375 L 95 53.988281 C 95 51.84375 96.742188 50.105469 98.886719 50.105469 C 101.03125 50.105469 102.773438 51.84375 102.773438 53.988281 L 102.773438 106.996094 C 102.773438 109.144531 101.035156 110.882812 98.886719 110.882812 Z M 98.886719 110.882812 "/>
<path style=" stroke:none;fill-rule:nonzero;fill:rgb(0%,0%,0%);fill-opacity:1;" d="M 112.683594 51.292969 C 111.929688 51.292969 111.171875 51.074219 110.5 50.617188 L 58.933594 15.570312 L 7.367188 50.617188 C 5.589844 51.828125 3.171875 51.363281 1.96875 49.589844 C 0.761719 47.816406 1.222656 45.398438 3 44.191406 L 56.75 7.660156 C 58.070312 6.761719 59.800781 6.761719 61.121094 7.660156 L 114.871094 44.191406 C 116.644531 45.398438 117.105469 47.816406 115.902344 49.589844 C 115.148438 50.695312 113.925781 51.292969 112.683594 51.292969 Z M 112.683594 51.292969 "/>
<path style=" stroke:none;fill-rule:nonzero;fill:rgb(0%,0%,0%);fill-opacity:1;" d="M 98.886719 25.511719 C 96.742188 25.511719 95 23.773438 95 21.628906 L 95 15.394531 L 85.125 15.394531 C 82.976562 15.394531 81.242188 13.65625 81.242188 11.507812 C 81.242188 9.363281 82.976562 7.621094 85.125 7.621094 L 98.886719 7.621094 C 101.035156 7.621094 102.773438 9.363281 102.773438 11.507812 L 102.773438 21.628906 C 102.773438 23.773438 101.035156 25.511719 98.886719 25.511719 Z M 98.886719 25.511719 "/>
</g>
</svg>
